{"title":"Deadpool (2016) HDTS V3 x264 READNFO - Exclusive","uid":13567277,"size":1055737398,"categoryP":"video","categoryS":"movies","magnet":"?xt=urn:btih:1a4c8a148253d734072c575e1db3bee6e77e5f2b&amp;dn=Deadpool+%282016%29+HDTS+V3+x264+READNFO+-+Exclusive&amp;tr=udp%3A%2F%2Ftracker.leechers-paradise.org%3A6969&amp;tr=udp%3A%2F%2Fzer0day.ch%3A1337&amp;tr=udp%3A%2F%2Fopen.demonii.com%3A1337&amp;tr=udp%3A%2F%2Ftracker.coppersurfer.tk%3A6969&amp;tr=udp%3A%2F%2Fexodus.desync.com%3A6969","seeders":2,"leechers":4,"uploader":"tykoon123","files":2,"time":1455640048,"description":"http://imgh.us/PHmsnmPgBPiGqm_1_l.jpg\r\n\r\nVideo: Portugese-br TS\r\nAudio: THX FTP Premium for perfect English LiNE Audio :)\r\n\r\nREADNFO:\r\nThis is Version 3 video, little dark but better source compared to previous one &amp; having around 2 mins more video length compared to other versions. Post credits are still missing, but added as separate file in torrent. \r\n\r\nFormat                                   : Matroska\r\nFormat version                           : Version 4 / Version 2\r\nFile size                                : 962 MiB\r\nDuration                                 : 1h 38mn\r\nOverall bit rate mode                    : Variable\r\nOverall bit rate                         : 1 362 Kbps\r\nEncoded date                             : UTC 2016-02-16 14:55:47\r\nWriting application                      : mkvmerge v8.8.0 ('Wind at my back') 32bit\r\n\r\nVideo\r\nID                                       : 1\r\nFormat                                   : AVC\r\nFormat/Info                              : Advanced Video Codec\r\nFormat profile                           :   \r\nFormat settings, CABAC                   : Yes\r\nFormat settings, ReFrames                : 3 frames\r\nCodec ID                                 : V_MPEG4/ISO/AVC\r\nDuration                                 : 1h 38mn\r\nBit rate mode                            : Variable\r\nBit rate                                 : 1 143 Kbps\r\nMaximum bit rate                         : 2 000 Kbps\r\nWidth                                    : 854 pixels\r\nHeight                                   : 480 pixels\r\nDisplay aspect ratio                     : 16:9\r\nFrame rate mode                          : Constant\r\nFrame rate                               : 29.970 fps\r\nStandard                                 : NTSC\r\nColor space                              : YUV\r\nChroma subsampling                       : 4:2:0\r\nBit depth                                : 8 bits\r\nScan type                                : Progressive\r\nBits/(Pixel*Frame)                       : 0.093\r\nStream size                              : 807 MiB (84%)\r\nLanguage                                 : English\r\nDefault                                  : Yes\r\nForced                                   : No\r\n\r\nAudio\r\nID                                       : 2\r\nFormat                                   : AC-3\r\nFormat/Info                              : Audio Coding 3\r\nMode extension                           : CM (complete main)\r\nFormat settings, Endianness              : Big\r\nCodec ID                                 : A_AC3\r\nDuration                                 : 1h 38mn\r\nBit rate mode                            : Constant\r\nBit rate                                 : 192 Kbps\r\nChannel(s)                               : 2 channels\r\nChannel positions                        : Front: L R\r\nSampling rate                            : 48.0 KHz\r\nBit depth                                : 16 bits\r\nCompression mode                         : Lossy\r\nStream size                              : 136 MiB (14%)\r\nDefault                                  : Yes\r\nForced                                   : No\r\n\r\nScreens: \nhttp://imgh.us/Deadpool_(2016)_HDTS_V3_x264_READNFO_-_Exclusive.mkvs_2016.02.16_10.00.35.jpg","torrent":{"xt":"urn:btih:1a4c8a148253d734072c575e1db3bee6e77e5f2b","amp;dn":"Deadpool+%282016%29+HDTS+V3+x264+READNFO+-+Exclusive","amp;tr":["udp%3A%2F%2Ftracker.leechers-paradise.org%3A6969","udp%3A%2F%2Fzer0day.ch%3A1337","udp%3A%2F%2Fopen.demonii.com%3A1337","udp%3A%2F%2Ftracker.coppersurfer.tk%3A6969","udp%3A%2F%2Fexodus.desync.com%3A6969"],"infoHash":"1a4c8a148253d734072c575e1db3bee6e77e5f2b","infoHashBuffer":{"type":"Buffer","data":[26,76,138,20,130,83,215,52,7,44,87,94,29,179,190,230,231,126,95,43]},"announce":[],"urlList":[]}}